<svg xmlns="http://www.w3.org/2000/svg" viewBox="0 0 141 42">
  <g fill="none" fill-rule="evenodd" transform="translate(1 1)">
    <path fill="#FFF" fill-rule="nonzero" stroke="#C7CACD" d="M6,0 L133,0 C136.3,0 139,2.7 139,6 L139,34 C139,37.3 136.3,40 133,40 L6,40 C2.7,40 0,37.3 0,34 L0,6 C0,2.7 2.7,0 6,0 Z"/>
    <text fill="#434343" font-family="Lato-Bold, Lato" font-size="15" font-weight="bold">
      <tspan x="39" y="26">Chat on</tspan> <tspan x="91.297" y="26" font-family="Lato-Regular, Lato" font-weight="normal"> </tspan> <tspan x="95.138" y="26" font-family="Lato-ExtraBold, Lato" font-weight="600">Slack</tspan>
    </text>
    <g fill-rule="nonzero" transform="translate(10 9)">
      <path fill="#E1A749" d="M14.3,1.4 C14,0.4 12.9,-0.2 11.8,0.1 C10.8,0.4 10.2,1.5 10.5,2.6 L15.6,18.2 C15.9,19.2 17,19.7 18,19.4 C19,19.1 19.7,18 19.3,17 C19.3,16.9 14.3,1.4 14.3,1.4"/>
      <path fill="#40AE86" d="M6.4,3.9 C6.1,2.9 5,2.3 3.9,2.7 C2.9,3 2.4,4.1 2.7,5.1 L7.8,20.7 C8.1,21.7 9.2,22.2 10.2,21.9 C11.2,21.6 11.9,20.5 11.5,19.5 C11.5,19.5 6.4,3.9 6.4,3.9"/>
      <path fill="#CC245C" d="M20.6,14.3 C21.6,14 22.2,12.9 21.9,11.8 C21.6,10.8 20.5,10.2 19.4,10.5 L3.8,15.6 C2.9,16 2.3,17 2.6,18 C2.9,19 4,19.7 5,19.3 C5.1,19.3 20.6,14.3 20.6,14.3"/>
      <path fill="#452546" d="M7.1,18.7 C8.1,18.4 9.4,17.9 10.8,17.5 C10.5,16.5 10,15.2 9.6,13.8 L5.9,15 L7.1,18.7"/>
      <path fill="#B7272E" d="M14.9,16.1 C16.3,15.6 17.6,15.2 18.6,14.9 C18.3,13.9 17.8,12.6 17.4,11.2 L13.7,12.4 L14.9,16.1"/>
      <path fill="#75C3CA" d="M18.1,6.4 C19.1,6.1 19.7,5 19.4,3.9 C19.1,2.9 18,2.3 16.9,2.6 L1.3,7.8 C0.3,8.1 -0.2,9.2 0.1,10.2 C0.4,11.2 1.5,11.9 2.5,11.5 C2.5,11.5 18.1,6.4 18.1,6.4"/>
      <path fill="#2B8A74" d="M4.5,10.8 C5.5,10.5 6.8,10 8.2,9.6 C7.8,8.2 7.4,6.9 7.1,5.9 L3.3,7.1 L4.5,10.8"/>
      <path fill="#637F3D" d="M12.4,8.3 C13.8,7.8 15.1,7.4 16.1,7.1 C15.6,5.7 15.2,4.4 14.9,3.4 L11.2,4.6 L12.4,8.3"/>
    </g>
  </g>
</svg>
