<?xml version="1.0" encoding="UTF-8" standalone="no"?>
<svg
   xmlns:dc="http://purl.org/dc/elements/1.1/"
   xmlns:cc="http://creativecommons.org/ns#"
   xmlns:rdf="http://www.w3.org/1999/02/22-rdf-syntax-ns#"
   xmlns:svg="http://www.w3.org/2000/svg"
   xmlns="http://www.w3.org/2000/svg"
   xmlns:sodipodi="http://sodipodi.sourceforge.net/DTD/sodipodi-0.dtd"
   xmlns:inkscape="http://www.inkscape.org/namespaces/inkscape"
   viewBox="0 0 299.4286 56.546934"
   version="1.1"
   id="svg937"
   sodipodi:docname="clojurebridge-london-slack-channel-banner-small.svg"
   width="79.223816mm"
   height="14.961376mm"
   inkscape:version="0.92.2 (5c3e80d, 2017-08-06)"
   inkscape:export-filename="/home/jr0cket/projects/practicalli/clojurebridge-workshop/images/clojurebridge-london-slack-channel-banner-small.png"
   inkscape:export-xdpi="90"
   inkscape:export-ydpi="90">
  <metadata
     id="metadata943">
    <rdf:RDF>
      <cc:Work
         rdf:about="">
        <dc:format>image/svg+xml</dc:format>
        <dc:type
           rdf:resource="http://purl.org/dc/dcmitype/StillImage" />
        <dc:title></dc:title>
      </cc:Work>
    </rdf:RDF>
  </metadata>
  <defs
     id="defs941" />
  <sodipodi:namedview
     pagecolor="#ffffff"
     bordercolor="#666666"
     borderopacity="1"
     objecttolerance="10"
     gridtolerance="10"
     guidetolerance="10"
     inkscape:pageopacity="0"
     inkscape:pageshadow="2"
     inkscape:window-width="2560"
     inkscape:window-height="1413"
     id="namedview939"
     showgrid="false"
     units="mm"
     fit-margin-top="2"
     fit-margin-left="2"
     fit-margin-right="2"
     fit-margin-bottom="2"
     inkscape:zoom="2.5212619"
     inkscape:cx="73.773466"
     inkscape:cy="28.273469"
     inkscape:window-x="0"
     inkscape:window-y="27"
     inkscape:window-maximized="1"
     inkscape:current-layer="svg937" />
  <path
     style="fill:#ffffff;fill-rule:nonzero;stroke:#c7cacd;stroke-width:1.42882276;stroke-miterlimit:4;stroke-dasharray:none"
     inkscape:connector-curvature="0"
     id="path907"
     d="M 20.484185,8.2734665 H 278.9444 c 6.71589,0 12.21072,2.6999995 12.21072,5.9999995 v 28 c 0,3.3 -5.49483,6 -12.21072,6 H 20.484185 c -6.715896,0 -12.2107185,-2.7 -12.2107185,-6 v -28 c 0,-3.3 5.4948225,-5.9999995 12.2107185,-5.9999995 z" />
  <text
     style="font-weight:bold;font-size:15px;font-family:Lato-Bold, Lato;fill:#434343;fill-rule:evenodd"
     id="text915"
     font-weight="bold"
     font-size="15"
     x="4.2734661"
     y="6.6984701">
    <tspan
       id="tspan909"
       y="32.698471"
       x="43.273468"
       style="font-style:normal;font-variant:normal;font-weight:500;font-stretch:normal;font-family:Ubuntu;-inkscape-font-specification:'Ubuntu Medium'">Clojurebridge London Slack channel</tspan>
  </text>
  <g
     style="fill:none;fill-rule:nonzero"
     id="g933"
     transform="translate(14.273466,17.268976)">
    <path
       style="fill:#e1a749"
       inkscape:connector-curvature="0"
       id="path917"
       d="m 14.3,1.4 c -0.3,-1 -1.4,-1.6 -2.5,-1.3 -1,0.3 -1.6,1.4 -1.3,2.5 l 5.1,15.6 c 0.3,1 1.4,1.5 2.4,1.2 1,-0.3 1.7,-1.4 1.3,-2.4 0,-0.1 -5,-15.6 -5,-15.6" />
    <path
       style="fill:#40ae86"
       inkscape:connector-curvature="0"
       id="path919"
       d="M 6.4,3.9 C 6.1,2.9 5,2.3 3.9,2.7 2.9,3 2.4,4.1 2.7,5.1 l 5.1,15.6 c 0.3,1 1.4,1.5 2.4,1.2 1,-0.3 1.7,-1.4 1.3,-2.4 0,0 -5.1,-15.6 -5.1,-15.6" />
    <path
       style="fill:#cc245c"
       inkscape:connector-curvature="0"
       id="path921"
       d="m 20.6,14.3 c 1,-0.3 1.6,-1.4 1.3,-2.5 -0.3,-1 -1.4,-1.6 -2.5,-1.3 L 3.8,15.6 C 2.9,16 2.3,17 2.6,18 2.9,19 4,19.7 5,19.3 c 0.1,0 15.6,-5 15.6,-5" />
    <path
       style="fill:#452546"
       inkscape:connector-curvature="0"
       id="path923"
       d="m 7.1,18.7 c 1,-0.3 2.3,-0.8 3.7,-1.2 -0.3,-1 -0.8,-2.3 -1.2,-3.7 L 5.9,15 7.1,18.7" />
    <path
       style="fill:#b7272e"
       inkscape:connector-curvature="0"
       id="path925"
       d="m 14.9,16.1 c 1.4,-0.5 2.7,-0.9 3.7,-1.2 -0.3,-1 -0.8,-2.3 -1.2,-3.7 l -3.7,1.2 1.2,3.7" />
    <path
       style="fill:#75c3ca"
       inkscape:connector-curvature="0"
       id="path927"
       d="M 18.1,6.4 C 19.1,6.1 19.7,5 19.4,3.9 19.1,2.9 18,2.3 16.9,2.6 L 1.3,7.8 c -1,0.3 -1.5,1.4 -1.2,2.4 0.3,1 1.4,1.7 2.4,1.3 0,0 15.6,-5.1 15.6,-5.1" />
    <path
       style="fill:#2b8a74"
       inkscape:connector-curvature="0"
       id="path929"
       d="M 4.5,10.8 C 5.5,10.5 6.8,10 8.2,9.6 7.8,8.2 7.4,6.9 7.1,5.9 l -3.8,1.2 1.2,3.7" />
    <path
       style="fill:#637f3d"
       inkscape:connector-curvature="0"
       id="path931"
       d="M 12.4,8.3 C 13.8,7.8 15.1,7.4 16.1,7.1 15.6,5.7 15.2,4.4 14.9,3.4 l -3.7,1.2 1.2,3.7" />
  </g>
</svg>
