<?xml version="1.0" encoding="UTF-8"?>
<svg width="147px" height="29px" viewBox="0 0 147 29" version="1.1" xmlns="http://www.w3.org/2000/svg" xmlns:xlink="http://www.w3.org/1999/xlink">
    <!-- Generator: Sketch 52 (66869) - http://www.bohemiancoding.com/sketch -->
    <title>Signal_Logo_Full</title>
    <desc>Created with Sketch.</desc>
    <g id="Symbols" stroke="none" stroke-width="1" fill="none" fill-rule="evenodd">
        <g id="Signal_Logo_Full" fill="#FF595A">
            <g>
                <g id="Group" transform="translate(24.540098, 4.553719)" opacity="0.6">
                    <g transform="translate(48.358429, 0.000000)" id="Path">
                        <g>
                            <polygon points="0.180441899 0.0263636364 0.180441899 6.10677686 14.7505237 19.9021488 14.7505237 19.5642149 14.7481178 13.8145455"></polygon>
                        </g>
                    </g>
                    <g transform="translate(23.818331, 7.429752)" id="Path">
                        <g>
                            <polygon points="2.10274959 0.131818182 0.0890180033 4.53694215 7.78546645 4.53694215 7.77343699 0.131818182"></polygon>
                        </g>
                    </g>
                    <g transform="translate(0.000000, 7.909091)" id="Path">
                        <g>
                            <polygon points="0.20690671 16.012314 4.78531915 16.012314 4.78531915 4.40512397 0.20690671 0.067107438"></polygon>
                        </g>
                    </g>
                    <g transform="translate(105.859247, 19.173554)" id="Path">
                        <g>
                            <polygon points="4.77328969 0.225289256 0.19487725 4.74785124 16.5765957 4.74785124 16.5765957 0.225289256"></polygon>
                        </g>
                    </g>
                    <g transform="translate(77.950900, 19.173554)" id="Path">
                        <g>
                            <polygon points="2.25191489 0.225289256 0.115482815 4.74785124 0.115482815 4.74785124 17.6809002 4.74785124 17.6809002 4.74785124 15.5564975 0.225289256"></polygon>
                        </g>
                    </g>
                </g>
                <polygon id="Path" points="24.7470049 12.5299174 24.7470049 0.553636364 29.3254173 0.553636364 29.3254173 16.8679339"></polygon>
                <polygon id="Path" points="68.5005565 0.239669421 68.5005565 28.475124 73.0789689 28.475124 73.0789689 4.58008264"></polygon>
                <polygon id="Path" points="135.172635 0.553636364 135.172635 23.952562 130.594223 28.475124 130.594223 0.553636364"></polygon>
                <g id="Group">
                    <path d="M56.1318658,12.1152893 L56.1438953,16.5204132 L56.1438953,22.9699174 C54.5656301,23.952562 52.4725041,24.4630579 50.4202782,24.4630579 C44.8867267,24.4630579 40.7485925,20.0986777 40.7485925,14.5143802 C40.7485925,8.93008264 44.8939444,4.56570248 50.4202782,4.56570248 C53.1846481,4.56570248 55.9538298,5.66578512 57.6836661,7.51603306 L60.6453191,4.29008264 C58.0782324,1.6153719 54.4068412,0.239669421 50.4202782,0.239669421 C46.6084177,0.202809271 42.9418719,1.69483035 40.2461262,4.37981934 C37.5503806,7.06480832 36.052018,10.7170863 36.0883797,14.5143802 C36.0520283,18.3112544 37.5500624,21.963161 40.2452839,24.6480786 C42.9405054,27.3329963 46.6064269,28.8253034 50.4178723,28.7890909 C54.3659411,28.7890909 58.1167267,27.4517355 60.7223077,25.2108264 L60.7223077,12.1152893 L56.1318658,12.1152893 Z" id="Path"></path>
                    <polygon id="Path" points="87.6490507 24.4558678 92.2250573 28.7890909 92.2250573 0.553636364 87.6466448 0.553636364 87.6466448 18.3682645"></polygon>
                    <polygon id="Path" points="111.40964 0.239669421 97.710491 28.475124 102.606481 28.475124 111.40964 9.83363636 120.171899 28.475124 125.106383 28.475124"></polygon>
                    <path d="M9.43350245,28.7890909 C5.21116203,28.7890909 1.77554828,26.9028926 0,24.0316529 L3.47410802,21.1220661 C4.77569558,22.8908264 6.94821604,24.477438 9.39500818,24.477438 L9.43350245,28.7890909 Z M9.39500818,4.56570248 C7.50157119,4.56570248 5.68512275,5.66818182 5.68512275,7.59512397 C5.68512275,9.32553719 6.8399509,10.588595 9.39500818,11.7270248 L9.39500818,16.616281 L7.42217676,15.7750413 C3.19743044,13.9247934 1.10671031,11.2644628 1.10671031,7.63347107 C1.10671031,3.15165289 5.17026187,0.239669421 9.43350245,0.239669421 L9.39500818,4.56570248 Z" id="Shape" fill-rule="nonzero"></path>
                    <g opacity="0.6" transform="translate(9.382979, 11.504132)" id="Path">
                        <g>
                            <path d="M0.0120294599,0.222892562 L0.0120294599,5.11214876 L0.0336824877,5.11214876 L0.250212766,5.20322314 C3.01217676,6.4231405 4.31617021,7.64305785 4.31617021,9.72578512 C4.31617021,11.7318182 2.73549918,12.9517355 0.0120294599,12.9517355 L0.0505237316,17.2657851 C5.4589689,17.2657851 8.97397709,14.0422314 8.97397709,9.3231405 C8.97397709,5.43090909 6.36839607,2.99107438 2.53821604,1.33975207 L0.372913257,0.357107438 C0.250212766,0.30677686 0.132324059,0.254049587 0.0144353519,0.201322314 L0.0120294599,0.222892562 Z"></path>
                        </g>
                    </g>
                    <g opacity="0.6" transform="translate(9.382979, 0.239669)" id="Path">
                        <g>
                            <path d="M4.74923077,6.80421488 L7.90816694,3.53991736 C5.85353519,1.10247934 3.28885434,0 0.0529296236,0 L0.0120294599,4.32603306 C2.02576105,4.32603306 3.28885434,5.07380165 4.74923077,6.80421488"></path>
                        </g>
                    </g>
                </g>
            </g>
        </g>
    </g>
</svg>